<svg xmlns="http://www.w3.org/2000/svg" viewBox="0 0 128 128" width="64" height="64"><path d="M56.6 21.6c-22.5 0-40.8 18.5-40.8 41.2 0 22.8 18.3 41.2 40.8 41.2 10.3 0 19.7-3.9 26.9-10.3l2.3 2.3-2.1 2.2c-1.2 1.2-1.2 3.1 0 4.3l18 18.2c.6.6 1.3.9 2.1.9s1.6-.3 2.1-.9l8-8.1c1.1-1.2 1.1-3.1-.1-4.2l-18-18.2c-.6-.6-1.3-.9-2.1-.9s-1.6.3-2.1.9l-2.1 2.2-2.3-2.4c6.3-7.3 10.2-16.8 10.2-27.2 0-22.7-18.3-41.2-40.8-41.2zm0 6.1c19.2 0 34.8 15.8 34.8 35.2C91.4 82.3 75.8 98 56.6 98c-19.2 0-34.8-15.7-34.8-35.1 0-19.4 15.6-35.2 34.8-35.2zm.1 12.5c-9.5 0-18 6.1-21.2 15.1-.5 1.3.2 2.9 1.6 3.3.3.1.6.2.9.2 1.1 0 2.1-.7 2.5-1.8 2.4-6.9 9-11.6 16.2-11.6 1.4 0 2.6-1.2 2.6-2.6 0-1.4-1.2-2.6-2.6-2.6zm-19 24.7c-1.4 0-2.6 1.1-2.6 2.6v.4c.1 1.4 1.2 2.6 2.7 2.6 1.4 0 2.6-1.2 2.6-2.6v-.3c0-1.5-1.1-2.7-2.6-2.7h-.1zm56.1 31.7l13.8 14-3.8 3.8-13.8-14 3.8-3.8z"/></svg>